# xmcd
#
# Track frame offsets:
#	150
#	19529
#	39730
#	65122
#	96006
#	116347
#	138761
#	159713
#	174507
#	191548
#	208805
#	220291
#	241113
#	262882
#
# Disc length: 4108 seconds
#
# Revision: 0
# Processed by: cddbd v1.4PL0 Copyright (c) Steve Scherf et al.
# Submitted via: dBpowerAMP V4.0
#
DISCID=c0100a0e
DTITLE=Ben Harper and The Innocent Criminals - Live From Mars [CDTwo)
DYEAR=2001
DGENRE=Blues
TTITLE0=Waiting On An Angel
TTITLE1=Roses From My Friends
TTITLE2=Power Of The Gospel
TTITLE3=Pleasure And Pain
TTITLE4=Please Bleed
TTITLE5=The Drugs Don't Work
TTITLE6=In The Lord's Arms
TTITLE7=Not Fire, Not Ice
TTITLE8=Beloved One
TTITLE9=#3
TTITLE10=Walk Away
TTITLE11=Another Lonely Day
TTITLE12=Like A King - I'll Rise
TTITLE13=Bonus Track
EXTD=
EXTT0=
EXTT1=
EXTT2=
EXTT3=
EXTT4=
EXTT5=
EXTT6=
EXTT7=
EXTT8=
EXTT9=
EXTT10=
EXTT11=
EXTT12=
EXTT13=
PLAYORDER=
